<svg xmlns="http://www.w3.org/2000/svg" viewBox="0 0 192 192" role="img" aria-label="Spark Women safety icon">
  <defs>
    <linearGradient id="bg" x1="0" y1="0" x2="1" y2="1">
      <stop offset="0%" stop-color="#fff3e7"/>
      <stop offset="100%" stop-color="#f3f0ff"/>
    </linearGradient>
    <linearGradient id="shield" x1="0" y1="0" x2="1" y2="1">
      <stop offset="0%" stop-color="#ffcc34"/>
      <stop offset="100%" stop-color="#f39b1f"/>
    </linearGradient>
  </defs>

  <rect width="192" height="192" rx="38" fill="url(#bg)"/>
  <ellipse cx="96" cy="164" rx="60" ry="9" fill="#d8d0eb"/>

  <path d="M50 58l46-18 46 18c0 34-13 58-46 80-33-22-46-46-46-80z" fill="url(#shield)"/>
  <rect x="79" y="84" width="34" height="28" rx="6" fill="#2e3a8f"/>
  <rect x="86" y="72" width="20" height="18" rx="9" fill="none" stroke="#2e3a8f" stroke-width="5"/>

  <circle cx="132" cy="92" r="12" fill="#f6b18e"/>
  <path d="M120 92c0-10 6-17 12-17 7 0 12 7 12 17v2h-24z" fill="#ba4a3f"/>
  <path d="M120 104c6-5 18-5 24 0v24h-24z" fill="#ef5f52"/>
</svg>
