<svg xmlns="http://www.w3.org/2000/svg" viewBox="0 0 512 512" role="img" aria-label="Spark Women safety icon">
  <defs>
    <linearGradient id="bg" x1="0" y1="0" x2="1" y2="1">
      <stop offset="0%" stop-color="#fff3e7"/>
      <stop offset="100%" stop-color="#f3f0ff"/>
    </linearGradient>
    <linearGradient id="shield" x1="0" y1="0" x2="1" y2="1">
      <stop offset="0%" stop-color="#ffcc34"/>
      <stop offset="100%" stop-color="#f39b1f"/>
    </linearGradient>
  </defs>

  <rect width="512" height="512" rx="110" fill="url(#bg)"/>
  <ellipse cx="256" cy="430" rx="170" ry="24" fill="#d8d0eb"/>

  <path d="M124 158l132-52 132 52c0 98-37 169-132 236-95-67-132-138-132-236z" fill="url(#shield)"/>
  <rect x="206" y="226" width="100" height="80" rx="16" fill="#2e3a8f"/>
  <rect x="224" y="190" width="64" height="46" rx="28" fill="none" stroke="#2e3a8f" stroke-width="14"/>

  <circle cx="362" cy="252" r="34" fill="#f6b18e"/>
  <path d="M328 252c0-30 16-50 34-50s34 20 34 50v8h-68z" fill="#ba4a3f"/>
  <path d="M324 286c16-13 44-13 60 0v70h-60z" fill="#ef5f52"/>
</svg>
